<svg height="500" viewBox="0 0 132.29167 132.29167" width="500" xmlns="http://www.w3.org/2000/svg"><g fill="#ff6b00" stroke="#000" stroke-width="1.322917" transform="matrix(1.6075369 0 0 1.6075369 -124.78062 -72.180798)"><path d="m84.660881 117.6766h68.217359v8.85807h-68.217359z"/><path d="m142.08564 49.234919v14.356193s-12.31985-4.989033-20.77066-4.989033c-10.79259 0-13.03257 4.072678-13.03257 6.719922 0 3.665411-.38958 6.283635 16.90162 9.163526 14.63536 2.437557 21.58519 8.144932 21.58519 20.363391 0 12.837102-6.54099 22.615742-23.84987 22.819382-17.51604.20607-30.31675-4.4923-30.31675-4.4923v-15.170748s13.3802 6.677768 23.35826 7.085028c9.97806.40727 13.64347-4.47994 13.8471-7.330848.00001-3.345744-2.25318-6.105675-5.25175-7.199445-4.28547-1.56319-10.03717-2.37204-14.83001-3.473867-9.20779-2.116791-17.09718-7.003983-17.63268-19.320512-.40727-9.367163 3.64056-18.446769 16.79979-21.17793 16.1889-3.359959 33.19233 2.647241 33.19233 2.647241z"/></g></svg>